<?xml version="1.0" encoding="UTF-8" standalone="no"?>
<!-- Created with Inkscape (http://www.inkscape.org/) -->

<svg
   xmlns:dc="http://purl.org/dc/elements/1.1/"
   xmlns:cc="http://creativecommons.org/ns#"
   xmlns:rdf="http://www.w3.org/1999/02/22-rdf-syntax-ns#"
   xmlns:svg="http://www.w3.org/2000/svg"
   xmlns="http://www.w3.org/2000/svg"
   xmlns:sodipodi="http://sodipodi.sourceforge.net/DTD/sodipodi-0.dtd"
   xmlns:inkscape="http://www.inkscape.org/namespaces/inkscape"
   version="1.1"
   id="svg2"
   xml:space="preserve"
   width="47.832306"
   height="47.832306"
   viewBox="0 0 47.832307 47.832305"
   sodipodi:docname="favicon.svg"
   inkscape:version="0.92.3 (2405546, 2018-03-11)"><metadata
     id="metadata8"><rdf:RDF><cc:Work
         rdf:about=""><dc:format>image/svg+xml</dc:format><dc:type
           rdf:resource="http://purl.org/dc/dcmitype/StillImage" /><dc:title></dc:title></cc:Work></rdf:RDF></metadata><defs
     id="defs6"><clipPath
       clipPathUnits="userSpaceOnUse"
       id="clipPath18"><path
         d="m 278.75,540 c 0,-63.297 51.312,-114.61 114.61,-114.61 v 0 c 63.297,0 114.61,51.313 114.61,114.61 v 0 c 0,63.297 -51.313,114.61 -114.61,114.61 v 0 C 330.062,654.61 278.75,603.297 278.75,540"
         id="path16"
         inkscape:connector-curvature="0" /></clipPath><linearGradient
       x1="0"
       y1="0"
       x2="1"
       y2="0"
       gradientUnits="userSpaceOnUse"
       gradientTransform="matrix(0,229.21996,229.21996,0,393.35989,425.39001)"
       spreadMethod="pad"
       id="linearGradient30"><stop
         style="stop-opacity:1;stop-color:#04b1ff"
         offset="0"
         id="stop24" /><stop
         style="stop-opacity:1;stop-color:#0538ff"
         offset="0.999199"
         id="stop26" /><stop
         style="stop-opacity:1;stop-color:#0538ff"
         offset="1"
         id="stop28" /></linearGradient><clipPath
       clipPathUnits="userSpaceOnUse"
       id="clipPath40"><path
         d="M 0,1080 H 1920 V 0 H 0 Z"
         id="path38"
         inkscape:connector-curvature="0" /></clipPath><clipPath
       clipPathUnits="userSpaceOnUse"
       id="clipPath60"><path
         d="m 1114.738,540 c 0,-63.297 51.312,-114.61 114.61,-114.61 v 0 c 63.297,0 114.609,51.313 114.609,114.61 v 0 c 0,63.297 -51.312,114.61 -114.609,114.61 v 0 c -63.298,0 -114.61,-51.313 -114.61,-114.61"
         id="path58"
         inkscape:connector-curvature="0" /></clipPath><linearGradient
       x1="0"
       y1="0"
       x2="1"
       y2="0"
       gradientUnits="userSpaceOnUse"
       gradientTransform="matrix(0,229.21996,229.21996,0,1229.3478,425.39001)"
       spreadMethod="pad"
       id="linearGradient74"><stop
         style="stop-opacity:1;stop-color:#cecece"
         offset="0"
         id="stop66" /><stop
         style="stop-opacity:1;stop-color:#cecece"
         offset="0.0051883"
         id="stop68" /><stop
         style="stop-opacity:1;stop-color:#8b8b8b"
         offset="0.998818"
         id="stop70" /><stop
         style="stop-opacity:1;stop-color:#8b8b8b"
         offset="1"
         id="stop72" /></linearGradient><clipPath
       clipPathUnits="userSpaceOnUse"
       id="clipPath84"><path
         d="M 0,1080 H 1920 V 0 H 0 Z"
         id="path82"
         inkscape:connector-curvature="0" /></clipPath><clipPath
       id="clipPath843"
       clipPathUnits="userSpaceOnUse"><rect
         y="90.712402"
         x="-211.15019"
         height="25.709576"
         width="98.285988"
         id="rect845"
         style="opacity:1;fill:#fffffe;fill-opacity:1;stroke:none;stroke-width:0.15899999;stroke-linecap:round;stroke-linejoin:round;stroke-miterlimit:4;stroke-dasharray:none;stroke-opacity:0.30653268" /></clipPath></defs><sodipodi:namedview
     pagecolor="#ffffff"
     bordercolor="#666666"
     borderopacity="1"
     objecttolerance="10"
     gridtolerance="10"
     guidetolerance="10"
     inkscape:pageopacity="0"
     inkscape:pageshadow="2"
     inkscape:window-width="1920"
     inkscape:window-height="982"
     id="namedview4"
     showgrid="false"
     fit-margin-top="0"
     fit-margin-left="0"
     fit-margin-right="0"
     fit-margin-bottom="0"
     inkscape:zoom="5.2444444"
     inkscape:cx="32.992866"
     inkscape:cy="12.59054"
     inkscape:window-x="0"
     inkscape:window-y="27"
     inkscape:window-maximized="1"
     inkscape:current-layer="g10" /><g
     id="g10"
     inkscape:groupmode="layer"
     inkscape:label="ZIRKUL"
     transform="matrix(1.3333333,0,0,-1.3333333,-371.66665,872.81331)"><g
       id="g12"
       transform="matrix(0.15650567,0,0,0.15650567,235.12404,552.15982)"><g
         id="g14"
         clip-path="url(#clipPath18)"><g
           id="g20"><g
             id="g22"><path
               d="m 278.75,540 c 0,-63.297 51.312,-114.61 114.61,-114.61 v 0 c 63.297,0 114.61,51.313 114.61,114.61 v 0 c 0,63.297 -51.313,114.61 -114.61,114.61 v 0 C 330.062,654.61 278.75,603.297 278.75,540"
               style="fill:url(#linearGradient30);stroke:none"
               id="path32"
               inkscape:connector-curvature="0" /></g></g></g></g><g
       id="g34"
       transform="matrix(0.15650567,0,0,0.15650567,235.12404,552.15982)"><g
         id="g36"
         clip-path="url(#clipPath40)"><g
           id="g42"
           transform="translate(319.5469,596.3271)"><path
             d="M 0,0 16.626,-30.385 H 47.584 L 0,-112.654 H 100.042 L 82.556,-82.842 H 52.744 L 100.042,0 Z"
             style="fill:#ffffff;fill-opacity:1;fill-rule:nonzero;stroke:none"
             id="path44"
             inkscape:connector-curvature="0" /></g><g
           id="g46"
           transform="translate(431.6279,596.3271)"><path
             d="M 0,0 H 35.545 L 3.153,-57.331 35.545,-112.654 H 0 l -32.392,56.183 z"
             style="fill:#ffffff;fill-opacity:1;fill-rule:nonzero;stroke:none"
             id="path48"
             inkscape:connector-curvature="0" /></g></g></g><g
       id="g54" /></g></svg>